<svg xmlns="http://www.w3.org/2000/svg" viewBox="0 0 398.09 235.03"><defs><style>.cls-1{fill:#dce1e2;}.cls-2{fill:#0eafa3;}.cls-3{fill:#5d6572;}.cls-4{fill:#4c4c4c;}.cls-5{fill:#d8b713;}</style></defs><g id="Layer_2" data-name="Layer 2"><g id="Layer_2-2" data-name="Layer 2"><rect class="cls-1" x="1" y="0.49" width="395" height="234.54"/><polygon class="cls-2" points="3.5 121.69 391.5 121.19 391.5 94.21 381.5 94.21 381.5 98.13 376.5 98.13 376.5 86.36 374.5 86.36 374.5 84.39 369.5 84.39 369.5 100.09 366.5 100.09 366.5 33.37 362.5 33.37 362.5 42.2 359.5 42.2 359.5 98.13 354.5 98.13 354.5 86.36 352.5 86.36 352.5 84.39 348.5 84.39 348.5 90.28 344.5 90.28 344.5 86.36 340.5 86.36 340.5 77.53 337.5 77.53 337.5 36.31 333.5 36.31 333.5 105.98 330.5 105.98 330.5 98.13 318.5 98.13 318.5 102.06 315.5 102.06 315.5 94.21 311.5 94.21 311.5 86.36 309.5 86.36 309.5 76.54 301.5 76.54 301.5 71.64 297.5 71.64 297.5 51.03 294.5 51.03 294.5 98.13 289.5 98.13 289.5 93.23 286.5 93.23 286.5 87.34 281.5 87.34 281.5 84.39 278.5 84.39 278.5 77.53 273.5 77.53 273.5 69.67 271.5 69.67 271.5 79.49 267.5 79.49 267.5 98.13 264.5 98.13 264.5 105.98 250.5 105.98 250.5 98.13 245.5 98.13 245.5 101.08 243.5 101.08 243.5 86.36 238.5 86.36 238.5 91.26 235.5 91.26 235.5 94.21 231.5 94.21 231.5 83.41 228.5 83.41 228.5 76.54 223.5 76.54 223.5 71.64 221.5 71.64 221.5 64.77 217.5 64.77 217.5 101.08 213.5 101.08 213.5 93.23 206.5 93.23 206.5 98.13 202.5 98.13 202.5 93.23 199.5 93.23 199.5 98.13 194.5 98.13 194.5 72.62 191.5 72.62 191.5 79.49 187.5 79.49 187.5 76.54 185.5 76.54 185.5 62.8 180.5 62.8 180.5 77.53 175.5 77.53 175.5 93.23 170.5 93.23 170.5 99.11 156.5 99.11 156.5 79.49 148.5 79.49 148.5 85.38 143.5 85.38 143.5 72.62 140.5 72.62 140.5 54.95 135.5 54.95 135.5 105 133.5 105 133.5 97.15 121.5 97.15 121.5 89.3 118.5 89.3 118.5 93.23 115.5 93.23 115.5 101.08 111.5 101.08 111.5 87.34 106.5 87.34 106.5 83.41 104.5 83.41 104.5 36.31 100.5 36.31 100.5 69.67 97.5 69.67 97.5 105.98 92.5 105.98 92.5 98.13 89.5 98.13 89.5 93.23 85.5 93.23 85.5 100.09 82.5 100.09 82.5 97.15 76.5 97.15 76.5 100.09 72.5 100.09 72.5 110.89 54.5 110.89 54.5 105.98 48.5 105.98 48.5 111.87 39.5 111.87 39.5 114.81 3.5 114.81 3.5 121.69"/><polygon class="cls-2" points="391.5 233.56 391.5 208.04 381.5 208.04 381.5 212.95 376.5 212.95 376.5 200.19 374.5 200.19 374.5 193.32 369.5 193.32 369.5 213.93 366.5 213.93 366.5 160.94 364.5 160.94 364.5 148.67 362.5 148.67 362.5 156.03 359.5 156.03 359.5 212.95 354.5 212.95 354.5 201.17 351.5 201.17 351.5 198.23 348.5 198.23 348.5 206.08 345.5 206.08 345.5 200.19 340.5 200.19 340.5 186.45 337.5 186.45 337.5 148.67 333.5 148.67 333.5 218.84 330.5 218.84 330.5 211.97 315.5 211.97 315.5 208.04 311.5 208.04 311.5 201.17 308.5 201.17 308.5 191.36 300.5 191.36 300.5 186.45 296.5 186.45 296.5 181.55 292.5 181.55 292.5 212.95 289.5 212.95 289.5 207.06 286.5 207.06 286.5 201.17 282.5 201.17 282.5 197.25 279.5 197.25 279.5 186.45 275.5 186.45 275.5 184.49 272.5 184.49 272.5 193.32 267.5 193.32 267.5 211.97 263.5 211.97 263.5 219.82 251.5 219.82 251.5 211.97 245.5 211.97 245.5 214.91 242.5 214.91 242.5 200.19 237.5 200.19 237.5 205.1 235.5 205.1 235.5 208.04 231.5 208.04 231.5 198.23 228.5 198.23 228.5 191.36 223.5 191.36 223.5 185.47 221.5 185.47 221.5 176.64 216.5 176.64 216.5 214.91 213.5 214.91 213.5 208.04 207.5 208.04 207.5 211.97 202.5 211.97 202.5 208.04 199.5 208.04 199.5 212.95 194.5 212.95 194.5 186.45 191.5 186.45 191.5 191.36 185.5 191.36 185.5 177.62 181.5 177.62 181.5 191.36 175.5 191.36 175.5 207.06 170.5 207.06 170.5 211.97 156.5 211.97 156.5 193.32 150.5 193.32 150.5 189.4 147.5 189.4 147.5 198.23 143.5 198.23 143.5 186.45 140.5 186.45 140.5 164.86 137.5 164.86 137.5 219.82 133.5 219.82 133.5 212.95 129.5 212.95 129.5 208.04 122.5 208.04 122.5 205.1 118.5 205.1 118.5 208.04 113.5 208.04 113.5 212.95 109.5 212.95 109.5 201.17 107.5 201.17 107.5 194.3 104.5 194.3 104.5 148.18 101.5 148.18 101.5 179.58 98.5 179.58 98.5 213.93 92.5 213.93 92.5 210.99 89.5 210.99 89.5 207.06 85.5 207.06 85.5 214.91 82.5 214.91 82.5 211.97 74.5 211.97 74.5 214.91 71.5 214.91 71.5 226.69 54.5 226.69 54.5 221.78 48.5 221.78 48.5 226.69 34.5 226.69 34.5 229.63 31.5 229.63 31.5 226.69 27.5 226.69 27.5 230.61 5.5 230.61 5.5 233.56 391.5 233.56"/><polygon class="cls-3" points="0 48.51 0 0 55.81 0 0 48.51"/><path class="cls-4" d="M83,67.22H53a9.94,9.94,0,0,1-10-9.87V28a10,10,0,0,1,10-9.88H83A10,10,0,0,1,93,28V57.35A9.94,9.94,0,0,1,83,67.22Z"/><rect class="cls-5" x="55.81" y="30.73" width="24.74" height="24.27" rx="5.58"/><polygon class="cls-3" points="395.9 214.68 294.42 165.86 1 165.86 1 160.92 295.58 160.92 296.1 161.17 398.1 210.24 395.9 214.68"/><ellipse class="cls-5" cx="290.5" cy="164.86" rx="13.5" ry="13.25"/><path class="cls-3" d="M290.5,180.58a15.72,15.72,0,1,1,16-15.72A15.88,15.88,0,0,1,290.5,180.58Zm0-26.5a10.78,10.78,0,1,0,11,10.78A10.9,10.9,0,0,0,290.5,154.08Z"/></g></g></svg>