<svg xmlns="http://www.w3.org/2000/svg" viewBox="0 0 71.34 76.45"><defs><style>.cls-1{fill:#20e0bb;}</style></defs><g id="Layer_2" data-name="Layer 2"><g id="Layer_2-2" data-name="Layer 2"><g id="timecode"><path class="cls-1" d="M58,74.22,23,40.15s-12.76.61-18-4.49C1.72,32.54.48,27.28,0,23.67a1.22,1.22,0,0,1,2.07-1A13,13,0,0,0,13.93,26c9.72-1.87,13.42-8.1,8.64-15.52-1.82-2.84-7.27-6.08-10.9-8A1.22,1.22,0,0,1,12.14.17C17.78-.37,27.73.07,33.83,6c7,6.8,3.45,24.73,3.45,24.73L69.1,63.16a7.8,7.8,0,0,1-.11,11h0A7.86,7.86,0,0,1,58,74.22Z"/></g></g></g></svg>