<svg xmlns="http://www.w3.org/2000/svg" viewBox="0 0 2672 762.67"><defs><style>.cls-1{fill:#7d8693;}.cls-2{fill:#5d6572;}.cls-3{fill:#5692fc;}.cls-4{fill:#0eafa3;}.cls-5{fill:#3d77f9;}.cls-6{fill:#20e0bb;}.cls-7{fill:#e0b838;}</style></defs><g id="Layer_2" data-name="Layer 2"><g id="Layer_2-2" data-name="Layer 2"><path class="cls-1" d="M2555,27.26v41a4.1,4.1,0,0,0,3.17,4.07,4,4,0,0,0,4.83-3.92V27.11a4,4,0,0,0-4.83-3.92A4.11,4.11,0,0,0,2555,27.26Z"/><path class="cls-1" d="M2662,27.26v41a4.1,4.1,0,0,0,3.17,4.07,4,4,0,0,0,4.83-3.92V27.11a4,4,0,0,0-4.83-3.92A4.11,4.11,0,0,0,2662,27.26Z"/><path class="cls-1" d="M498,27.26v41a4.1,4.1,0,0,0,3.17,4.07A4,4,0,0,0,506,68.44V27.11a4,4,0,0,0-4.83-3.92A4.11,4.11,0,0,0,498,27.26Z"/><path class="cls-1" d="M637,27.26v41a4.1,4.1,0,0,0,3.17,4.07A4,4,0,0,0,645,68.44V27.11a4,4,0,0,0-4.83-3.92A4.11,4.11,0,0,0,637,27.26Z"/><path class="cls-1" d="M774,27.26v41a4.1,4.1,0,0,0,3.17,4.07A4,4,0,0,0,782,68.44V27.11a4,4,0,0,0-4.83-3.92A4.11,4.11,0,0,0,774,27.26Z"/><path class="cls-1" d="M897,4.15V68.29a4.1,4.1,0,0,0,3.17,4.07A4,4,0,0,0,905,68.44V4A4,4,0,0,0,900.17.08,4.11,4.11,0,0,0,897,4.15Z"/><path class="cls-1" d="M1051,4.15V68.29a4.1,4.1,0,0,0,3.17,4.07,4,4,0,0,0,4.83-3.92V4a4,4,0,0,0-4.83-3.92A4.11,4.11,0,0,0,1051,4.15Z"/><path class="cls-1" d="M1189,27.26v41a4.1,4.1,0,0,0,3.17,4.07,4,4,0,0,0,4.83-3.92V27.11a4,4,0,0,0-4.83-3.92A4.11,4.11,0,0,0,1189,27.26Z"/><path class="cls-1" d="M1327,27.26v41a4.1,4.1,0,0,0,3.17,4.07,4,4,0,0,0,4.83-3.92V27.11a4,4,0,0,0-4.83-3.92A4.11,4.11,0,0,0,1327,27.26Z"/><path class="cls-1" d="M1466,27.26v41a4.1,4.1,0,0,0,3.17,4.07,4,4,0,0,0,4.83-3.92V27.11a4,4,0,0,0-4.83-3.92A4.11,4.11,0,0,0,1466,27.26Z"/><path class="cls-1" d="M1605,27.26v41a4.1,4.1,0,0,0,3.17,4.07,4,4,0,0,0,4.83-3.92V27.11a4,4,0,0,0-4.83-3.92A4.11,4.11,0,0,0,1605,27.26Z"/><path class="cls-1" d="M1748,4.15V68.29a4.1,4.1,0,0,0,3.17,4.07,4,4,0,0,0,4.83-3.92V4a4,4,0,0,0-4.83-3.92A4.11,4.11,0,0,0,1748,4.15Z"/><path class="cls-1" d="M1880,27.26v41a4.1,4.1,0,0,0,3.17,4.07,4,4,0,0,0,4.83-3.92V27.11a4,4,0,0,0-4.83-3.92A4.11,4.11,0,0,0,1880,27.26Z"/><path class="cls-1" d="M2018,27.26v41a4.1,4.1,0,0,0,3.17,4.07,4,4,0,0,0,4.83-3.92V27.11a4,4,0,0,0-4.83-3.92A4.11,4.11,0,0,0,2018,27.26Z"/><path class="cls-1" d="M2157,27.26v41a4.1,4.1,0,0,0,3.17,4.07,4,4,0,0,0,4.83-3.92V27.11a4,4,0,0,0-4.83-3.92A4.11,4.11,0,0,0,2157,27.26Z"/><path class="cls-1" d="M2296,27.26v41a4.1,4.1,0,0,0,3.17,4.07,4,4,0,0,0,4.83-3.92V27.11a4,4,0,0,0-4.83-3.92A4.11,4.11,0,0,0,2296,27.26Z"/><path class="cls-1" d="M2439,4.15V68.29a4.1,4.1,0,0,0,3.17,4.07,4,4,0,0,0,4.83-3.92V4a4,4,0,0,0-4.83-3.92A4.11,4.11,0,0,0,2439,4.15Z"/><path class="cls-2" d="M2672,527.67H496v-239H2672Zm-2172-4H2668v-231H500Z"/><path class="cls-2" d="M500,527.67H0v-239H500Zm-496-4H496v-231H4Z"/><path class="cls-2" d="M500,292.67H0v-239H500Zm-496-4H496v-231H4Z"/><path class="cls-2" d="M2569.33,762.67H496v-239H2672V660A102.67,102.67,0,0,1,2569.33,762.67ZM500,758.67H2569.33A98.67,98.67,0,0,0,2668,660V527.67H500Z"/><path class="cls-2" d="M500,762.67H102.67A102.67,102.67,0,0,1,0,660V523.67H500ZM4,527.67V660a98.67,98.67,0,0,0,98.67,98.67H496v-231Z"/><rect class="cls-3" x="498" y="55.67" width="2172" height="235"/><rect class="cls-4" x="498" y="54.46" width="2172" height="20.42"/><rect class="cls-5" x="500" y="75.67" width="275" height="215"/><polygon class="cls-6" points="568.43 290.67 775 290.67 775 190.6 722.68 136.56 568.43 290.67"/><polygon class="cls-4" points="559.32 190.6 500 246.74 500 290.67 568.07 290.67 616.11 242.68 559.32 190.6"/><circle class="cls-7" cx="610.5" cy="146.17" r="31.5" transform="translate(241.83 654.26) rotate(-67.5)"/></g></g></svg>