<svg xmlns="http://www.w3.org/2000/svg" viewBox="0 0 91 70"><defs><style>.cls-1{fill:#20e0bb;}.cls-2{fill:#222326;}</style></defs><g id="Layer_2" data-name="Layer 2"><g id="Layer_2-2" data-name="Layer 2"><g id="player"><path class="cls-1" d="M40,33.64V63.36A6.64,6.64,0,0,0,46.64,70H54V27H46.64A6.64,6.64,0,0,0,40,33.64Z"/><path class="cls-1" d="M84.36,27H76V70h8.36A6.64,6.64,0,0,0,91,63.36V33.64A6.64,6.64,0,0,0,84.36,27Z"/><path class="cls-2" d="M85.24,40H85a3,3,0,0,1-3-3h0a3,3,0,0,1,3-3h.27a3,3,0,0,1,3,3h0A3,3,0,0,1,85.24,40Z"/><rect class="cls-2" x="81.97" y="43" width="6.26" height="6" rx="2.85"/><path class="cls-2" d="M85.24,58H85a3,3,0,0,1-3-3h0a3,3,0,0,1,3-3h.27a3,3,0,0,1,3,3h0A3,3,0,0,1,85.24,58Z"/><path class="cls-2" d="M85.24,68H85a3,3,0,0,1-3-3h0a3,3,0,0,1,3-3h.27a3,3,0,0,1,3,3h0A3,3,0,0,1,85.24,68Z"/><path class="cls-2" d="M47.55,68h-.26a3,3,0,0,1-3-3h0a3,3,0,0,1,3-3h.26a3,3,0,0,1,3,3h0A3,3,0,0,1,47.55,68Z"/><rect class="cls-1" x="44" y="52" width="6" height="6"/><rect class="cls-1" width="54" height="43" rx="7.75"/><path class="cls-2" d="M10,11.56h0a3,3,0,0,1-3-3H7a3,3,0,0,1,3-3h0a3,3,0,0,1,3,3h0A3,3,0,0,1,10,11.56Z"/><path class="cls-2" d="M10,20.73h0a3,3,0,0,1-3-3H7a3,3,0,0,1,3-3h0a3,3,0,0,1,3,3h0A3,3,0,0,1,10,20.73Z"/><path class="cls-2" d="M10,29.9h0a3,3,0,0,1-3-3H7a3,3,0,0,1,3-3h0a3,3,0,0,1,3,3h0A3,3,0,0,1,10,29.9Z"/><path class="cls-2" d="M10,39.06h0a3,3,0,0,1-3-3H7a3,3,0,0,1,3-3h0a3,3,0,0,1,3,3h0A3,3,0,0,1,10,39.06Z"/><path class="cls-2" d="M47.42,11.56h0a3,3,0,0,1-3-3h0a3,3,0,0,1,3-3h0a3,3,0,0,1,3,3h0A3,3,0,0,1,47.42,11.56Z"/><path class="cls-2" d="M47.42,20.73h0a3,3,0,0,1-3-3h0a3,3,0,0,1,3-3h0a3,3,0,0,1,3,3h0A3,3,0,0,1,47.42,20.73Z"/><path class="cls-2" d="M47.42,29.9h0a3,3,0,0,1-3-3h0a3,3,0,0,1,3-3h0a3,3,0,0,1,3,3h0A3,3,0,0,1,47.42,29.9Z"/><path class="cls-2" d="M47.42,39.06h0a3,3,0,0,1-3-3h0a3,3,0,0,1,3-3h0a3,3,0,0,1,3,3h0A3,3,0,0,1,47.42,39.06Z"/></g></g></g></svg>