<svg xmlns="http://www.w3.org/2000/svg" viewBox="0 0 62.65 64.3"><defs><style>.cls-1{fill:#5d6572;}.cls-2{fill:#2b62fc;}.cls-3{fill:#20e0bb;}</style></defs><g id="Layer_2" data-name="Layer 2"><g id="Layer_2-2" data-name="Layer 2"><g id="tabl"><path class="cls-1" d="M27.56.18A7.32,7.32,0,0,0,22,7.4h0a9,9,0,0,0,2.41,6.12h0a7,7,0,0,1,1.86,4.73v42.9a3.1,3.1,0,0,0,2.44,3.1,3,3,0,0,0,3.56-3V17.52A5.25,5.25,0,0,1,33.61,14L34.55,13a6.86,6.86,0,0,0,1.74-4.56V7.13A7.15,7.15,0,0,0,27.56.18Z"/><path class="cls-2" d="M23.29,30H12.4a4.51,4.51,0,0,1-4.5-4.5h0A4.5,4.5,0,0,1,12.4,21H23.29Z"/><path class="cls-2" d="M23.29,45H4.5A4.5,4.5,0,0,1,0,40.54H0A4.49,4.49,0,0,1,4.5,36H23.29Z"/><path class="cls-2" d="M58.65,29H35.29V21H58.65a4,4,0,0,1,4,4h0A4,4,0,0,1,58.65,29Z"/><path class="cls-2" d="M45.79,44H35.29V36h10.5a4,4,0,0,1,4,4h0A4,4,0,0,1,45.79,44Z"/><path class="cls-3" d="M59.34,56H35.29V50H59.34a3,3,0,0,1,3,3h0A3,3,0,0,1,59.34,56Z"/><path class="cls-3" d="M23.29,56H10.72a3,3,0,0,1-3-3h0a3,3,0,0,1,3-3H23.29Z"/></g></g></g></svg>