<svg xmlns="http://www.w3.org/2000/svg" viewBox="0 0 73.26 63"><defs><style>.cls-1{fill:#20e0bb;}</style></defs><g id="Layer_2" data-name="Layer 2"><g id="Layer_2-2" data-name="Layer 2"><g id="player"><path class="cls-1" d="M73.26,28v8a2,2,0,0,1-2,2H51.05a6.47,6.47,0,0,0-2.79,1.72v6c.8,1.67-1.13,2.6-2.43,1.56l-18-14.48a2,2,0,0,1-.07-3l18-15.91c1.28-1.13,3.53,1.49,3.53,1.49V24a2,2,0,0,0,2,2h20A2,2,0,0,1,73.26,28Z"/><path class="cls-1" d="M10.26,20.9V2.1A2.1,2.1,0,0,1,12.36,0h5.8a2.1,2.1,0,0,1,2.1,2.1V22.31A4.69,4.69,0,0,1,15.55,27h-.08a12.12,12.12,0,0,0-4.79.95c-1.82.8-3,2-3,3.05s1.15,2.25,3,3a12.12,12.12,0,0,0,4.79,1h0a4.8,4.8,0,0,1,4.79,4.78V60.9a2.1,2.1,0,0,1-2.1,2.1h-5.8a2.1,2.1,0,0,1-2.1-2.1V42C4.23,40.5,0,36.41,0,31.44S4.23,22.39,10.26,20.9Z"/></g></g></g></svg>