<svg xmlns="http://www.w3.org/2000/svg" viewBox="0 0 20.26 63"><defs><style>.cls-1{fill:#20e0bb;}</style></defs><g id="Layer_2" data-name="Layer 2"><g id="Layer_2-2" data-name="Layer 2"><g id="player"><path class="cls-1" d="M10.26,20.9V2.34A2.33,2.33,0,0,1,12.59,0h5.33a2.34,2.34,0,0,1,2.34,2.34V22.23A4.79,4.79,0,0,1,15.47,27h0a12.12,12.12,0,0,0-4.79.95c-1.82.8-3,2-3,3.05s1.15,2.25,3,3a12.12,12.12,0,0,0,4.79,1h0a4.8,4.8,0,0,1,4.79,4.78V60.66A2.34,2.34,0,0,1,17.92,63H12.59a2.33,2.33,0,0,1-2.33-2.34V42C4.23,40.5,0,36.41,0,31.44S4.23,22.39,10.26,20.9Z"/></g></g></g></svg>