<svg xmlns="http://www.w3.org/2000/svg" viewBox="0 0 63.03 97.08"><defs><style>.cls-1{fill:#7d8693;}</style></defs><g id="Layer_2" data-name="Layer 2"><g id="Layer_2-2" data-name="Layer 2"><g id="micro"><path class="cls-1" d="M31.51,66.39h0a15,15,0,0,1-15-15V15a15,15,0,0,1,15-15h0a15,15,0,0,1,15,15V51.39A15,15,0,0,1,31.51,66.39Z"/><path class="cls-1" d="M31.51,82.93A31.55,31.55,0,0,1,0,51.42v-9a3.5,3.5,0,0,1,7,0v9a24.52,24.52,0,0,0,49,0v-9a3.5,3.5,0,0,1,7,0v9A31.55,31.55,0,0,1,31.51,82.93Z"/><path class="cls-1" d="M31.51,97.08a3.5,3.5,0,0,1-3.5-3.5V79.43a3.5,3.5,0,1,1,7,0V93.58A3.5,3.5,0,0,1,31.51,97.08Z"/><path class="cls-1" d="M55.79,97.08H8.17a3.5,3.5,0,0,1,0-7H55.79a3.5,3.5,0,1,1,0,7Z"/></g></g></g></svg>