<svg xmlns="http://www.w3.org/2000/svg" viewBox="0 0 86.81 59.67"><defs><style>.cls-1{fill:#20e0bb;}</style></defs><g id="Layer_2" data-name="Layer 2"><g id="Layer_2-2" data-name="Layer 2"><g id="player"><rect class="cls-1" x="54.25" y="27.11" width="32.56" height="32.56"/><rect class="cls-1" y="27.11" width="32.56" height="32.56"/><path class="cls-1" d="M54.81,43.78H32.47A10.73,10.73,0,0,1,21.75,33.06V10.72A10.73,10.73,0,0,1,32.47,0H54.81A10.73,10.73,0,0,1,65.53,10.72V33.06A10.73,10.73,0,0,1,54.81,43.78ZM32.47,6a4.73,4.73,0,0,0-4.72,4.72V33.06a4.73,4.73,0,0,0,4.72,4.72H54.81a4.73,4.73,0,0,0,4.72-4.72V10.72A4.73,4.73,0,0,0,54.81,6Z"/><path class="cls-1" d="M54.73,28.78h-20A1.09,1.09,0,0,1,33.85,27l9.7-13a1.07,1.07,0,0,1,1.71,0L55.57,27A1.08,1.08,0,0,1,54.73,28.78Z"/></g></g></g></svg>