<svg xmlns="http://www.w3.org/2000/svg" viewBox="0 0 73.14 62.67"><defs><style>.cls-1{fill:#20e0bb;}</style></defs><g id="Layer_2" data-name="Layer 2"><g id="Layer_2-2" data-name="Layer 2"><g id="player"><polygon class="cls-1" points="0 25.78 0 37.78 24.44 37.78 24.44 49.88 47.56 31.33 24.28 13.38 24.28 25.78 0 25.78"/><path class="cls-1" d="M63.11,20.79V3.31A3.31,3.31,0,0,0,59.8,0H56.64a3.31,3.31,0,0,0-3.31,3.31V22.37a4.83,4.83,0,0,0,4.84,4.82h0a12.19,12.19,0,0,1,4.89,1c1.86.81,3,2,3,3.11s-1.17,2.29-3,3.11a12.37,12.37,0,0,1-4.89,1h0a4.85,4.85,0,0,0-4.84,4.82V59.36a3.31,3.31,0,0,0,3.31,3.31H59.8a3.31,3.31,0,0,0,3.31-3.31V41.76c5.89-1.47,10-5.55,10-10.48S69,22.27,63.11,20.79Z"/></g></g></g></svg>