<svg xmlns="http://www.w3.org/2000/svg" viewBox="0 0 20.26 63"><defs><style>.cls-1{fill:#20e0bb;}</style></defs><g id="Layer_2" data-name="Layer 2"><g id="Layer_2-2" data-name="Layer 2"><g id="player"><path class="cls-1" d="M10,20.9V2.41A2.41,2.41,0,0,0,7.59,0H2.41A2.41,2.41,0,0,0,0,2.41V22.23A4.79,4.79,0,0,0,4.79,27h0A12.12,12.12,0,0,1,9.58,28c1.82.8,3,2,3,3.05s-1.14,2.25-3,3a12.12,12.12,0,0,1-4.79,1h0A4.8,4.8,0,0,0,0,39.78V60.59A2.41,2.41,0,0,0,2.41,63H7.59A2.41,2.41,0,0,0,10,60.59V42c6-1.48,10.26-5.57,10.26-10.54S16,22.39,10,20.9Z"/></g></g></g></svg>