<?xml version="1.0" encoding="iso-8859-1"?>
<!-- Generator: Adobe Illustrator 19.0.0, SVG Export Plug-In . SVG Version: 6.00 Build 0)  -->
<svg version="1.1" id="Capa_1" xmlns="http://www.w3.org/2000/svg" xmlns:xlink="http://www.w3.org/1999/xlink" x="0px" y="0px"
	 viewBox="0 0 448.019 448.019" style="enable-background:new 0 0 448.019 448.019;" xml:space="preserve">
<path fill="#20e0bb" d="M294.953,1.587c-5.568-2.656-12.128-1.952-16.928,1.92L122.377,128.019H48.009c-17.632,0-32,14.368-32,32v128
	c0,17.664,14.368,32,32,32h74.368l155.616,124.512c2.912,2.304,6.464,3.488,10.016,3.488c2.368,0,4.736-0.544,6.944-1.6
	c5.536-2.656,9.056-8.256,9.056-14.4v-416C304.009,9.875,300.489,4.275,294.953,1.587z"/>
<path fill="#20e0bb" d="M385.001,110.867c-6.304-6.208-16.416-6.112-22.624,0.128c-6.208,6.304-6.144,16.416,0.128,22.656
	c24.192,23.872,37.504,55.968,37.504,90.368s-13.312,66.496-37.504,90.368c-6.272,6.176-6.336,16.32-0.128,22.624
	c3.136,3.168,7.264,4.736,11.36,4.736c4.064,0,8.128-1.536,11.264-4.64c30.336-29.856,47.008-70.048,47.008-113.088
	S415.337,140.787,385.001,110.867z"/>
<g>
</g>
<g>
</g>
<g>
</g>
<g>
</g>
<g>
</g>
<g>
</g>
<g>
</g>
<g>
</g>
<g>
</g>
<g>
</g>
<g>
</g>
<g>
</g>
<g>
</g>
<g>
</g>
<g>
</g>
</svg>
