<svg xmlns="http://www.w3.org/2000/svg" viewBox="0 0 66.02 58"><defs><style>.cls-1{fill:#20e0bb;}</style></defs><g id="Layer_2" data-name="Layer 2"><g id="Layer_2-2" data-name="Layer 2"><g id="player"><path class="cls-1" d="M57.72,8H52.4l-4-8H17.52l-4,8H8a8,8,0,0,0-8,8L0,49.66A8.3,8.3,0,0,0,8.25,58H57.72A8.31,8.31,0,0,0,66,49.69V16.31A8.31,8.31,0,0,0,57.72,8ZM33.3,47.71A16.61,16.61,0,1,1,49.91,31.1,16.64,16.64,0,0,1,33.3,47.71Z"/><circle class="cls-1" cx="33.02" cy="31" r="8"/></g></g></g></svg>